<svg width="188" height="159" viewBox="0 0 188 159" fill="none" xmlns="http://www.w3.org/2000/svg">
<path opacity="0.553246" fill-rule="evenodd" clip-rule="evenodd" d="M82.5296 28.0053C61.8584 23.9222 41.8022 37.4061 37.7818 58.0895L29.4152 101.132C29.2448 102.009 29.8156 102.858 30.6915 103.031L75.0496 111.792L71.4165 129.842C70.3079 135.349 73.8955 140.706 79.4103 141.778C84.8736 142.84 90.1697 139.294 91.2679 133.838L94.9155 115.716L141.315 124.881C142.194 125.055 143.048 124.481 143.219 123.601L151.628 80.3418C155.631 59.7468 142.217 39.795 121.634 35.7294L82.5296 28.0053Z" fill="url(#paint0_linear)"/>
<path fill-rule="evenodd" clip-rule="evenodd" d="M70.4597 97.8145L90.3376 101.678L84.267 131.838C83.1687 137.294 77.8726 140.84 72.4094 139.779C66.8945 138.707 63.307 133.349 64.4156 127.842L70.4597 97.8145Z" fill="url(#paint1_linear)"/>
<mask id="mask0" mask-type="alpha" maskUnits="userSpaceOnUse" x="64" y="97" width="27" height="43">
<path fill-rule="evenodd" clip-rule="evenodd" d="M70.4597 97.8145L90.3376 101.678L84.267 131.838C83.1687 137.294 77.8726 140.84 72.4094 139.779C66.8945 138.707 63.307 133.349 64.4156 127.842L70.4597 97.8145Z" fill="white"/>
</mask>
<g mask="url(#mask0)">
<path fill-rule="evenodd" clip-rule="evenodd" d="M80.0007 99.6692L90.3372 101.678L83.3139 136.57C82.7429 139.408 79.9889 141.252 77.148 140.7C74.2803 140.142 72.4147 137.357 72.9912 134.493L80.0007 99.6692Z" fill="url(#paint2_linear)"/>
</g>
<path fill-rule="evenodd" clip-rule="evenodd" d="M31.6533 56.8946C35.6738 36.2111 55.73 22.7272 76.4012 26.8103L107.382 32.9298C127.964 36.9954 141.378 56.9473 137.375 77.5422L130.09 115.021C129.919 115.901 129.065 116.475 128.185 116.301L25.6866 96.0549C24.8108 95.8819 24.24 95.0329 24.4103 94.1565L31.6533 56.8946Z" fill="url(#paint3_linear)"/>
<path fill-rule="evenodd" clip-rule="evenodd" d="M31.2442 58.999C35.4877 37.1682 56.679 22.9544 78.4875 27.311C93.6419 30.3384 103.503 45.0403 100.554 60.2102L91.0481 109.116L24.1021 95.7419L31.2442 58.999Z" fill="url(#paint4_linear)"/>
<path fill-rule="evenodd" clip-rule="evenodd" d="M36.0512 59.7394C39.5917 41.5249 57.2815 29.6729 75.4736 33.3266C88.0965 35.8618 96.3045 48.1127 93.8478 60.7512L84.6871 107.879L28.8728 96.6692L36.0512 59.7394Z" fill="url(#paint5_linear)"/>
<mask id="mask1" mask-type="alpha" maskUnits="userSpaceOnUse" x="28" y="32" width="67" height="76">
<path fill-rule="evenodd" clip-rule="evenodd" d="M36.0512 59.7394C39.5917 41.5249 57.2815 29.6729 75.4736 33.3266C88.0965 35.8618 96.3045 48.1127 93.8478 60.7512L84.6871 107.879L28.8728 96.6692L36.0512 59.7394Z" fill="white"/>
</mask>
<g mask="url(#mask1)">
<path fill-rule="evenodd" clip-rule="evenodd" d="M50.1848 32.0502L70.21 103.054L89.8399 105.993L102.9 38.8051L71.7364 29.9579L50.1848 32.0502Z" fill="black" fill-opacity="0.0932327"/>
</g>
<path fill-rule="evenodd" clip-rule="evenodd" d="M7.14824 89.5702C7.44786 88.0288 8.94333 87.0246 10.4835 87.3305L92.13 103.55L91.0481 109.116L9.37874 92.8918C7.8475 92.5876 6.85035 91.1027 7.14824 89.5702Z" fill="url(#paint6_linear)"/>
<path fill-rule="evenodd" clip-rule="evenodd" d="M116.754 69.7158C116.618 69.6894 116.487 69.7779 116.461 69.9135L116.46 69.9167C110.395 68.9022 104.379 73.9488 102.947 81.3144C101.515 88.6801 105.203 95.6128 111.206 96.9443L111.206 96.9475C111.179 97.083 111.268 97.2143 111.403 97.2406L117.764 98.477C117.9 98.5034 118.031 98.4149 118.057 98.2793L118.57 95.6426C121.794 93.7145 124.343 90.1037 125.21 85.642C126.078 81.1802 125.066 76.8773 122.8 73.882L123.312 71.2453C123.339 71.1098 123.25 70.9786 123.115 70.9522L116.754 69.7158ZM122.39 73.3707L122.774 71.3953L118.781 70.6191C120.166 71.2414 121.384 72.1864 122.39 73.3707ZM113.621 97.1623L117.614 97.9385L117.998 95.9632C116.622 96.6844 115.139 97.1042 113.621 97.1623Z" fill="url(#paint7_linear)"/>
<ellipse cx="119.644" cy="84.5601" rx="11.34" ry="13.77" transform="rotate(11 119.644 84.5601)" fill="url(#paint8_linear)"/>
<path fill-rule="evenodd" clip-rule="evenodd" d="M145.257 28.3286L184.178 44.8494L168.625 53.2951L173.354 70.3493L134.433 53.8284L145.257 28.3286Z" fill="url(#paint9_linear)"/>
<path fill-rule="evenodd" clip-rule="evenodd" d="M146.345 24.8309C144.678 24.123 142.752 24.9011 142.044 26.5688L120.389 77.5843C118.735 78.0985 117.212 79.473 116.389 81.4113C115.052 84.5615 116.071 88.0079 118.665 89.1091C121.259 90.2103 124.446 88.5493 125.783 85.3991C126.443 83.8449 126.529 82.2187 126.136 80.8375L148.083 29.1324C148.791 27.4647 148.013 25.5388 146.345 24.8309Z" fill="url(#paint10_linear)"/>
<path d="M16.6449 28.129L36.4879 63.2611L81.5336 58.3871L60.6675 19.5244C60.4001 19.0263 59.8351 18.7656 59.2826 18.8854L16.6449 28.129Z" fill="url(#paint11_linear)"/>
<path fill-rule="evenodd" clip-rule="evenodd" d="M80.4907 56.1761L81.5335 58.3871L77.7096 61.439L35.0038 65.6854L33.1212 60.6184L80.4907 56.1761Z" fill="#1E1616" fill-opacity="0.259061"/>
<path fill-rule="evenodd" clip-rule="evenodd" d="M57.6752 44.5892C59.4772 49.6007 64.7122 52.6882 70.1022 51.6405C76.0562 50.4831 79.9446 44.7183 78.7873 38.7643C77.6299 32.8103 71.8651 28.9219 65.9111 30.0792C60.8137 31.0701 57.2302 35.4381 57.0309 40.4107L39.6521 43.7491L39.1435 40.8634C38.9794 39.9328 38.084 39.3176 37.1564 39.4982L36.6034 39.606C35.745 39.7732 35.156 40.5678 35.2458 41.4378L35.5709 44.5892L34.0333 45.1765L33.1458 40.3386C32.9986 39.5364 32.2995 38.9539 31.4839 38.9539L30.8353 38.9539C29.8424 38.9539 29.0635 39.8059 29.1525 40.7949L29.5005 44.6632L28.4995 47L30.4995 50L57.6752 44.5892ZM74.6409 39.5703C74.908 40.9443 74.0106 42.2746 72.6366 42.5417C71.2626 42.8088 69.9323 41.9114 69.6652 40.5374C69.3981 39.1635 70.2955 37.8331 71.6695 37.566C73.0435 37.2989 74.3738 38.1963 74.6409 39.5703Z" fill="#98C7FA"/>
<path fill-rule="evenodd" clip-rule="evenodd" d="M56.3629 39.2019C56.5619 34.229 60.1454 29.8606 65.2431 28.8697C71.1971 27.7123 76.962 31.6008 78.1193 37.5548C79.2766 43.5087 75.3882 49.2736 69.4342 50.4309C64.0443 51.4786 58.8093 48.3912 57.0072 43.3798L30.7582 48.4821C29.6132 48.7046 28.5045 47.9568 28.282 46.8119C28.087 45.8087 28.6368 44.8334 29.5461 44.4575C29.5431 44.4439 29.5402 44.4301 29.5376 44.4163L28.8928 41.0992C28.7147 40.1832 29.3129 39.2963 30.2289 39.1182C31.1449 38.9402 32.0318 39.5384 32.2099 40.4544L32.8547 43.7715L35.3425 43.2879L35.0201 41.6293C34.8421 40.7133 35.4403 39.8264 36.3563 39.6484C37.2723 39.4703 38.1592 40.0686 38.3372 40.9846L38.6596 42.6431L56.3629 39.2019ZM68.9972 39.3279C68.7302 37.9539 69.6275 36.6236 71.0015 36.3565C72.3755 36.0894 73.7058 36.9867 73.9729 38.3607C74.24 39.7347 73.3427 41.0651 71.9687 41.3322C70.5947 41.5992 69.2643 40.7019 68.9972 39.3279Z" fill="url(#paint12_linear)"/>
<mask id="mask2" mask-type="alpha" maskUnits="userSpaceOnUse" x="28" y="28" width="51" height="23">
<path fill-rule="evenodd" clip-rule="evenodd" d="M56.3629 39.2019C56.5619 34.229 60.1454 29.8606 65.2431 28.8697C71.1971 27.7123 76.962 31.6008 78.1193 37.5548C79.2766 43.5087 75.3882 49.2736 69.4342 50.4309C64.0443 51.4786 58.8093 48.3912 57.0072 43.3798L30.7582 48.4821C29.6132 48.7046 28.5045 47.9568 28.282 46.8119C28.087 45.8087 28.6368 44.8334 29.5461 44.4575C29.5431 44.4439 29.5402 44.4301 29.5376 44.4163L28.8928 41.0992C28.7147 40.1832 29.3129 39.2963 30.2289 39.1182C31.1449 38.9402 32.0318 39.5384 32.2099 40.4544L32.8547 43.7715L35.3425 43.2879L35.0201 41.6293C34.8421 40.7133 35.4403 39.8264 36.3563 39.6484C37.2723 39.4703 38.1592 40.0686 38.3372 40.9846L38.6596 42.6431L56.3629 39.2019ZM68.9972 39.3279C68.7302 37.9539 69.6275 36.6236 71.0015 36.3565C72.3755 36.0894 73.7058 36.9867 73.9729 38.3607C74.24 39.7347 73.3427 41.0651 71.9687 41.3322C70.5947 41.5992 69.2643 40.7019 68.9972 39.3279Z" fill="white"/>
</mask>
<g mask="url(#mask2)">
<path fill-rule="evenodd" clip-rule="evenodd" d="M56.395 38.1582C56.395 38.1582 37.9497 36.9077 29.2064 38.6132C20.4631 40.3187 25.9662 44.0936 25.9662 44.0936L25.9384 46.3155L57.3631 40.0538C58.3214 35.2216 62.827 28.129 72.1536 29.0123L64.7763 26.8123L57.3631 29.0123L56.395 38.1582Z" fill="white" fill-opacity="0.210716"/>
</g>
<path d="M16.6445 28.129L36.6301 62.6437L81.5333 58.3871L64.9315 93.9898L0.0427335 63.7317L16.6445 28.129Z" fill="url(#paint13_linear)"/>
<mask id="mask3" mask-type="alpha" maskUnits="userSpaceOnUse" x="0" y="28" width="82" height="66">
<path d="M16.6445 28.129L36.6301 62.6437L81.5333 58.3871L66.0026 91.6929C65.411 92.9614 63.9031 93.5103 62.6345 92.9187L2.33969 64.8028C1.07112 64.2112 0.522274 62.7033 1.11382 61.4348L16.6445 28.129Z" fill="white"/>
</mask>
<g mask="url(#mask3)">
<path fill-rule="evenodd" clip-rule="evenodd" d="M26.2763 45.0863L58.4336 60.0815L64.2447 99.9613L-4.6637 67.8288L26.2763 45.0863Z" fill="white" fill-opacity="0.210716"/>
</g>
<defs>
<linearGradient id="paint0_linear" x1="38.1274" y1="30.6465" x2="31.2783" y2="135.356" gradientUnits="userSpaceOnUse">
<stop stop-opacity="0.1533"/>
<stop offset="1"/>
</linearGradient>
<linearGradient id="paint1_linear" x1="94.8274" y1="91.784" x2="55.3452" y2="86.758" gradientUnits="userSpaceOnUse">
<stop stop-color="#4563B9"/>
<stop offset="1"/>
</linearGradient>
<linearGradient id="paint2_linear" x1="80.0422" y1="119.525" x2="60.6293" y2="134.928" gradientUnits="userSpaceOnUse">
<stop stop-color="#3657A5"/>
<stop offset="1" stop-color="#2B437C"/>
</linearGradient>
<linearGradient id="paint3_linear" x1="71.9722" y1="63.7981" x2="50.5808" y2="121.544" gradientUnits="userSpaceOnUse">
<stop stop-color="#3657A5"/>
<stop offset="1" stop-color="#2B437C"/>
</linearGradient>
<linearGradient id="paint4_linear" x1="-31.2154" y1="94.1861" x2="103.724" y2="179.611" gradientUnits="userSpaceOnUse">
<stop stop-color="#4563B9"/>
<stop offset="1"/>
</linearGradient>
<linearGradient id="paint5_linear" x1="30.0156" y1="184.733" x2="126.97" y2="134.033" gradientUnits="userSpaceOnUse">
<stop stop-color="#4563B9"/>
<stop offset="1"/>
</linearGradient>
<linearGradient id="paint6_linear" x1="-429.907" y1="-26.9289" x2="-442.768" y2="39.2358" gradientUnits="userSpaceOnUse">
<stop stop-color="#4563B9"/>
<stop offset="1"/>
</linearGradient>
<linearGradient id="paint7_linear" x1="100.868" y1="129.436" x2="139.053" y2="109.047" gradientUnits="userSpaceOnUse">
<stop stop-color="#4563B9"/>
<stop offset="1"/>
</linearGradient>
<linearGradient id="paint8_linear" x1="102.218" y1="87.3797" x2="124.452" y2="126.357" gradientUnits="userSpaceOnUse">
<stop stop-color="#4563B9"/>
<stop offset="1"/>
</linearGradient>
<linearGradient id="paint9_linear" x1="154.867" y1="46.7712" x2="143.443" y2="65.4547" gradientUnits="userSpaceOnUse">
<stop stop-color="#3657A5"/>
<stop offset="1" stop-color="#2B437C"/>
</linearGradient>
<linearGradient id="paint10_linear" x1="94.4251" y1="113.226" x2="117.688" y2="123.15" gradientUnits="userSpaceOnUse">
<stop stop-color="#4563B9"/>
<stop offset="1"/>
</linearGradient>
<linearGradient id="paint11_linear" x1="159.067" y1="50.2177" x2="33.6218" y2="-8.27817" gradientUnits="userSpaceOnUse">
<stop stop-color="#003ABD"/>
<stop offset="1" stop-color="#005EF3"/>
</linearGradient>
<linearGradient id="paint12_linear" x1="82.8929" y1="51.1938" x2="78.6759" y2="25.2746" gradientUnits="userSpaceOnUse">
<stop stop-color="white"/>
<stop offset="1" stop-color="#C2F4FF"/>
</linearGradient>
<linearGradient id="paint13_linear" x1="99.4969" y1="89.3219" x2="113.724" y2="42.4421" gradientUnits="userSpaceOnUse">
<stop stop-color="#3181FF"/>
<stop offset="1" stop-color="#005EF3"/>
</linearGradient>
</defs>
</svg>
