<svg width="24" height="24" viewBox="0 0 24 24" fill="none" xmlns="http://www.w3.org/2000/svg">
<path d="M11.8799 2C6.35988 2 1.87988 6.48 1.87988 12C1.87988 17.52 6.35988 22 11.8799 22C17.3999 22 21.8799 17.52 21.8799 12C21.8799 6.48 17.3999 2 11.8799 2ZM11.8799 5C13.5399 5 14.8799 6.34 14.8799 8C14.8799 9.66 13.5399 11 11.8799 11C10.2199 11 8.87988 9.66 8.87988 8C8.87988 6.34 10.2199 5 11.8799 5ZM11.8799 19.2C9.37988 19.2 7.16988 17.92 5.87988 15.98C5.90988 13.99 9.87988 12.9 11.8799 12.9C13.8699 12.9 17.8499 13.99 17.8799 15.98C16.5899 17.92 14.3799 19.2 11.8799 19.2Z" fill="#FDF7FA"/>
</svg>
